<?xml version="1.0" encoding="utf-8" standalone="no"?>
<!DOCTYPE svg PUBLIC "-//W3C//DTD SVG 1.1//EN"
  "http://www.w3.org/Graphics/SVG/1.1/DTD/svg11.dtd">
<svg xmlns:xlink="http://www.w3.org/1999/xlink" width="432pt" height="432pt" viewBox="0 0 432 432" xmlns="http://www.w3.org/2000/svg" version="1.1">
 <metadata>
  <rdf:RDF xmlns:dc="http://purl.org/dc/elements/1.1/" xmlns:cc="http://creativecommons.org/ns#" xmlns:rdf="http://www.w3.org/1999/02/22-rdf-syntax-ns#">
   <cc:Work>
    <dc:type rdf:resource="http://purl.org/dc/dcmitype/StillImage"/>
    <dc:date>2024-02-18T17:29:57.340755</dc:date>
    <dc:format>image/svg+xml</dc:format>
    <dc:creator>
     <cc:Agent>
      <dc:title>Matplotlib v3.8.0, https://matplotlib.org/</dc:title>
     </cc:Agent>
    </dc:creator>
   </cc:Work>
  </rdf:RDF>
 </metadata>
 <defs>
  <style type="text/css">*{stroke-linejoin: round; stroke-linecap: butt}</style>
 </defs>
 <g id="figure_1">
  <g id="patch_1">
   <path d="M 0 432 
L 432 432 
L 432 0 
L 0 0 
z
" style="fill: #ffffff"/>
  </g>
  <g id="axes_1">
   <g id="patch_2">
    <path d="M 108 324 
L 388.8 324 
L 388.8 51.84 
L 108 51.84 
z
" style="fill: #ffffff"/>
   </g>
   <g id="matplotlib.axis_1">
    <g id="xtick_1">
     <g id="line2d_1">
      <path d="M 131.4 324 
L 131.4 51.84 
" clip-path="url(#p7a5909f94d)" style="fill: none; stroke: #b0b0b0; stroke-width: 0.8; stroke-linecap: square"/>
     </g>
     <g id="line2d_2">
      <defs>
       <path id="m1faf5741a1" d="M 0 0 
L 0 3.5 
" style="stroke: #000000; stroke-width: 0.8"/>
      </defs>
      <g>
       <use xlink:href="#m1faf5741a1" x="131.4" y="324" style="stroke: #000000; stroke-width: 0.8"/>
      </g>
     </g>
     <g id="text_1">
      <!-- −150 -->
      <g transform="translate(117.666406 338.598437) scale(0.1 -0.1)">
       <defs>
        <path id="DejaVuSans-2212" d="M 678 2272 
L 4684 2272 
L 4684 1741 
L 678 1741 
L 678 2272 
z
" transform="scale(0.015625)"/>
        <path id="DejaVuSans-31" d="M 794 531 
L 1825 531 
L 1825 4091 
L 703 3866 
L 703 4441 
L 1819 4666 
L 2450 4666 
L 2450 531 
L 3481 531 
L 3481 0 
L 794 0 
L 794 531 
z
" transform="scale(0.015625)"/>
        <path id="DejaVuSans-35" d="M 691 4666 
L 3169 4666 
L 3169 4134 
L 1269 4134 
L 1269 2991 
Q 1406 3038 1543 3061 
Q 1681 3084 1819 3084 
Q 2600 3084 3056 2656 
Q 3513 2228 3513 1497 
Q 3513 744 3044 326 
Q 2575 -91 1722 -91 
Q 1428 -91 1123 -41 
Q 819 9 494 109 
L 494 744 
Q 775 591 1075 516 
Q 1375 441 1709 441 
Q 2250 441 2565 725 
Q 2881 1009 2881 1497 
Q 2881 1984 2565 2268 
Q 2250 2553 1709 2553 
Q 1456 2553 1204 2497 
Q 953 2441 691 2322 
L 691 4666 
z
" transform="scale(0.015625)"/>
        <path id="DejaVuSans-30" d="M 2034 4250 
Q 1547 4250 1301 3770 
Q 1056 3291 1056 2328 
Q 1056 1369 1301 889 
Q 1547 409 2034 409 
Q 2525 409 2770 889 
Q 3016 1369 3016 2328 
Q 3016 3291 2770 3770 
Q 2525 4250 2034 4250 
z
M 2034 4750 
Q 2819 4750 3233 4129 
Q 3647 3509 3647 2328 
Q 3647 1150 3233 529 
Q 2819 -91 2034 -91 
Q 1250 -91 836 529 
Q 422 1150 422 2328 
Q 422 3509 836 4129 
Q 1250 4750 2034 4750 
z
" transform="scale(0.015625)"/>
       </defs>
       <use xlink:href="#DejaVuSans-2212"/>
       <use xlink:href="#DejaVuSans-31" x="83.789062"/>
       <use xlink:href="#DejaVuSans-35" x="147.412109"/>
       <use xlink:href="#DejaVuSans-30" x="211.035156"/>
      </g>
     </g>
    </g>
    <g id="xtick_2">
     <g id="line2d_3">
      <path d="M 170.4 324 
L 170.4 51.84 
" clip-path="url(#p7a5909f94d)" style="fill: none; stroke: #b0b0b0; stroke-width: 0.8; stroke-linecap: square"/>
     </g>
     <g id="line2d_4">
      <g>
       <use xlink:href="#m1faf5741a1" x="170.4" y="324" style="stroke: #000000; stroke-width: 0.8"/>
      </g>
     </g>
     <g id="text_2">
      <!-- −100 -->
      <g transform="translate(156.666406 338.598437) scale(0.1 -0.1)">
       <use xlink:href="#DejaVuSans-2212"/>
       <use xlink:href="#DejaVuSans-31" x="83.789062"/>
       <use xlink:href="#DejaVuSans-30" x="147.412109"/>
       <use xlink:href="#DejaVuSans-30" x="211.035156"/>
      </g>
     </g>
    </g>
    <g id="xtick_3">
     <g id="line2d_5">
      <path d="M 209.4 324 
L 209.4 51.84 
" clip-path="url(#p7a5909f94d)" style="fill: none; stroke: #b0b0b0; stroke-width: 0.8; stroke-linecap: square"/>
     </g>
     <g id="line2d_6">
      <g>
       <use xlink:href="#m1faf5741a1" x="209.4" y="324" style="stroke: #000000; stroke-width: 0.8"/>
      </g>
     </g>
     <g id="text_3">
      <!-- −50 -->
      <g transform="translate(198.847656 338.598437) scale(0.1 -0.1)">
       <use xlink:href="#DejaVuSans-2212"/>
       <use xlink:href="#DejaVuSans-35" x="83.789062"/>
       <use xlink:href="#DejaVuSans-30" x="147.412109"/>
      </g>
     </g>
    </g>
    <g id="xtick_4">
     <g id="line2d_7">
      <path d="M 248.4 324 
L 248.4 51.84 
" clip-path="url(#p7a5909f94d)" style="fill: none; stroke: #b0b0b0; stroke-width: 0.8; stroke-linecap: square"/>
     </g>
     <g id="line2d_8">
      <g>
       <use xlink:href="#m1faf5741a1" x="248.4" y="324" style="stroke: #000000; stroke-width: 0.8"/>
      </g>
     </g>
     <g id="text_4">
      <!-- 0 -->
      <g transform="translate(245.21875 338.598437) scale(0.1 -0.1)">
       <use xlink:href="#DejaVuSans-30"/>
      </g>
     </g>
    </g>
    <g id="xtick_5">
     <g id="line2d_9">
      <path d="M 287.4 324 
L 287.4 51.84 
" clip-path="url(#p7a5909f94d)" style="fill: none; stroke: #b0b0b0; stroke-width: 0.8; stroke-linecap: square"/>
     </g>
     <g id="line2d_10">
      <g>
       <use xlink:href="#m1faf5741a1" x="287.4" y="324" style="stroke: #000000; stroke-width: 0.8"/>
      </g>
     </g>
     <g id="text_5">
      <!-- 50 -->
      <g transform="translate(281.0375 338.598437) scale(0.1 -0.1)">
       <use xlink:href="#DejaVuSans-35"/>
       <use xlink:href="#DejaVuSans-30" x="63.623047"/>
      </g>
     </g>
    </g>
    <g id="xtick_6">
     <g id="line2d_11">
      <path d="M 326.4 324 
L 326.4 51.84 
" clip-path="url(#p7a5909f94d)" style="fill: none; stroke: #b0b0b0; stroke-width: 0.8; stroke-linecap: square"/>
     </g>
     <g id="line2d_12">
      <g>
       <use xlink:href="#m1faf5741a1" x="326.4" y="324" style="stroke: #000000; stroke-width: 0.8"/>
      </g>
     </g>
     <g id="text_6">
      <!-- 100 -->
      <g transform="translate(316.85625 338.598437) scale(0.1 -0.1)">
       <use xlink:href="#DejaVuSans-31"/>
       <use xlink:href="#DejaVuSans-30" x="63.623047"/>
       <use xlink:href="#DejaVuSans-30" x="127.246094"/>
      </g>
     </g>
    </g>
    <g id="xtick_7">
     <g id="line2d_13">
      <path d="M 365.4 324 
L 365.4 51.84 
" clip-path="url(#p7a5909f94d)" style="fill: none; stroke: #b0b0b0; stroke-width: 0.8; stroke-linecap: square"/>
     </g>
     <g id="line2d_14">
      <g>
       <use xlink:href="#m1faf5741a1" x="365.4" y="324" style="stroke: #000000; stroke-width: 0.8"/>
      </g>
     </g>
     <g id="text_7">
      <!-- 150 -->
      <g transform="translate(355.85625 338.598437) scale(0.1 -0.1)">
       <use xlink:href="#DejaVuSans-31"/>
       <use xlink:href="#DejaVuSans-35" x="63.623047"/>
       <use xlink:href="#DejaVuSans-30" x="127.246094"/>
      </g>
     </g>
    </g>
    <g id="text_8">
     <!-- angle in degrees -->
     <g transform="translate(206.665625 352.276563) scale(0.1 -0.1)">
      <defs>
       <path id="DejaVuSans-61" d="M 2194 1759 
Q 1497 1759 1228 1600 
Q 959 1441 959 1056 
Q 959 750 1161 570 
Q 1363 391 1709 391 
Q 2188 391 2477 730 
Q 2766 1069 2766 1631 
L 2766 1759 
L 2194 1759 
z
M 3341 1997 
L 3341 0 
L 2766 0 
L 2766 531 
Q 2569 213 2275 61 
Q 1981 -91 1556 -91 
Q 1019 -91 701 211 
Q 384 513 384 1019 
Q 384 1609 779 1909 
Q 1175 2209 1959 2209 
L 2766 2209 
L 2766 2266 
Q 2766 2663 2505 2880 
Q 2244 3097 1772 3097 
Q 1472 3097 1187 3025 
Q 903 2953 641 2809 
L 641 3341 
Q 956 3463 1253 3523 
Q 1550 3584 1831 3584 
Q 2591 3584 2966 3190 
Q 3341 2797 3341 1997 
z
" transform="scale(0.015625)"/>
       <path id="DejaVuSans-6e" d="M 3513 2113 
L 3513 0 
L 2938 0 
L 2938 2094 
Q 2938 2591 2744 2837 
Q 2550 3084 2163 3084 
Q 1697 3084 1428 2787 
Q 1159 2491 1159 1978 
L 1159 0 
L 581 0 
L 581 3500 
L 1159 3500 
L 1159 2956 
Q 1366 3272 1645 3428 
Q 1925 3584 2291 3584 
Q 2894 3584 3203 3211 
Q 3513 2838 3513 2113 
z
" transform="scale(0.015625)"/>
       <path id="DejaVuSans-67" d="M 2906 1791 
Q 2906 2416 2648 2759 
Q 2391 3103 1925 3103 
Q 1463 3103 1205 2759 
Q 947 2416 947 1791 
Q 947 1169 1205 825 
Q 1463 481 1925 481 
Q 2391 481 2648 825 
Q 2906 1169 2906 1791 
z
M 3481 434 
Q 3481 -459 3084 -895 
Q 2688 -1331 1869 -1331 
Q 1566 -1331 1297 -1286 
Q 1028 -1241 775 -1147 
L 775 -588 
Q 1028 -725 1275 -790 
Q 1522 -856 1778 -856 
Q 2344 -856 2625 -561 
Q 2906 -266 2906 331 
L 2906 616 
Q 2728 306 2450 153 
Q 2172 0 1784 0 
Q 1141 0 747 490 
Q 353 981 353 1791 
Q 353 2603 747 3093 
Q 1141 3584 1784 3584 
Q 2172 3584 2450 3431 
Q 2728 3278 2906 2969 
L 2906 3500 
L 3481 3500 
L 3481 434 
z
" transform="scale(0.015625)"/>
       <path id="DejaVuSans-6c" d="M 603 4863 
L 1178 4863 
L 1178 0 
L 603 0 
L 603 4863 
z
" transform="scale(0.015625)"/>
       <path id="DejaVuSans-65" d="M 3597 1894 
L 3597 1613 
L 953 1613 
Q 991 1019 1311 708 
Q 1631 397 2203 397 
Q 2534 397 2845 478 
Q 3156 559 3463 722 
L 3463 178 
Q 3153 47 2828 -22 
Q 2503 -91 2169 -91 
Q 1331 -91 842 396 
Q 353 884 353 1716 
Q 353 2575 817 3079 
Q 1281 3584 2069 3584 
Q 2775 3584 3186 3129 
Q 3597 2675 3597 1894 
z
M 3022 2063 
Q 3016 2534 2758 2815 
Q 2500 3097 2075 3097 
Q 1594 3097 1305 2825 
Q 1016 2553 972 2059 
L 3022 2063 
z
" transform="scale(0.015625)"/>
       <path id="DejaVuSans-20" transform="scale(0.015625)"/>
       <path id="DejaVuSans-69" d="M 603 3500 
L 1178 3500 
L 1178 0 
L 603 0 
L 603 3500 
z
M 603 4863 
L 1178 4863 
L 1178 4134 
L 603 4134 
L 603 4863 
z
" transform="scale(0.015625)"/>
       <path id="DejaVuSans-64" d="M 2906 2969 
L 2906 4863 
L 3481 4863 
L 3481 0 
L 2906 0 
L 2906 525 
Q 2725 213 2448 61 
Q 2172 -91 1784 -91 
Q 1150 -91 751 415 
Q 353 922 353 1747 
Q 353 2572 751 3078 
Q 1150 3584 1784 3584 
Q 2172 3584 2448 3432 
Q 2725 3281 2906 2969 
z
M 947 1747 
Q 947 1113 1208 752 
Q 1469 391 1925 391 
Q 2381 391 2643 752 
Q 2906 1113 2906 1747 
Q 2906 2381 2643 2742 
Q 2381 3103 1925 3103 
Q 1469 3103 1208 2742 
Q 947 2381 947 1747 
z
" transform="scale(0.015625)"/>
       <path id="DejaVuSans-72" d="M 2631 2963 
Q 2534 3019 2420 3045 
Q 2306 3072 2169 3072 
Q 1681 3072 1420 2755 
Q 1159 2438 1159 1844 
L 1159 0 
L 581 0 
L 581 3500 
L 1159 3500 
L 1159 2956 
Q 1341 3275 1631 3429 
Q 1922 3584 2338 3584 
Q 2397 3584 2469 3576 
Q 2541 3569 2628 3553 
L 2631 2963 
z
" transform="scale(0.015625)"/>
       <path id="DejaVuSans-73" d="M 2834 3397 
L 2834 2853 
Q 2591 2978 2328 3040 
Q 2066 3103 1784 3103 
Q 1356 3103 1142 2972 
Q 928 2841 928 2578 
Q 928 2378 1081 2264 
Q 1234 2150 1697 2047 
L 1894 2003 
Q 2506 1872 2764 1633 
Q 3022 1394 3022 966 
Q 3022 478 2636 193 
Q 2250 -91 1575 -91 
Q 1294 -91 989 -36 
Q 684 19 347 128 
L 347 722 
Q 666 556 975 473 
Q 1284 391 1588 391 
Q 1994 391 2212 530 
Q 2431 669 2431 922 
Q 2431 1156 2273 1281 
Q 2116 1406 1581 1522 
L 1381 1569 
Q 847 1681 609 1914 
Q 372 2147 372 2553 
Q 372 3047 722 3315 
Q 1072 3584 1716 3584 
Q 2034 3584 2315 3537 
Q 2597 3491 2834 3397 
z
" transform="scale(0.015625)"/>
      </defs>
      <use xlink:href="#DejaVuSans-61"/>
      <use xlink:href="#DejaVuSans-6e" x="61.279297"/>
      <use xlink:href="#DejaVuSans-67" x="124.658203"/>
      <use xlink:href="#DejaVuSans-6c" x="188.134766"/>
      <use xlink:href="#DejaVuSans-65" x="215.917969"/>
      <use xlink:href="#DejaVuSans-20" x="277.441406"/>
      <use xlink:href="#DejaVuSans-69" x="309.228516"/>
      <use xlink:href="#DejaVuSans-6e" x="337.011719"/>
      <use xlink:href="#DejaVuSans-20" x="400.390625"/>
      <use xlink:href="#DejaVuSans-64" x="432.177734"/>
      <use xlink:href="#DejaVuSans-65" x="495.654297"/>
      <use xlink:href="#DejaVuSans-67" x="557.177734"/>
      <use xlink:href="#DejaVuSans-72" x="620.654297"/>
      <use xlink:href="#DejaVuSans-65" x="659.517578"/>
      <use xlink:href="#DejaVuSans-65" x="721.041016"/>
      <use xlink:href="#DejaVuSans-73" x="782.564453"/>
     </g>
    </g>
   </g>
   <g id="matplotlib.axis_2">
    <g id="ytick_1">
     <g id="line2d_15">
      <path d="M 108 324 
L 388.8 324 
" clip-path="url(#p7a5909f94d)" style="fill: none; stroke: #b0b0b0; stroke-width: 0.8; stroke-linecap: square"/>
     </g>
     <g id="line2d_16">
      <defs>
       <path id="mfcee30982d" d="M 0 0 
L -3.5 0 
" style="stroke: #000000; stroke-width: 0.8"/>
      </defs>
      <g>
       <use xlink:href="#mfcee30982d" x="108" y="324" style="stroke: #000000; stroke-width: 0.8"/>
      </g>
     </g>
     <g id="text_9">
      <!-- 0 -->
      <g transform="translate(94.6375 327.799219) scale(0.1 -0.1)">
       <use xlink:href="#DejaVuSans-30"/>
      </g>
     </g>
    </g>
    <g id="ytick_2">
     <g id="line2d_17">
      <path d="M 108 269.568 
L 388.8 269.568 
" clip-path="url(#p7a5909f94d)" style="fill: none; stroke: #b0b0b0; stroke-width: 0.8; stroke-linecap: square"/>
     </g>
     <g id="line2d_18">
      <g>
       <use xlink:href="#mfcee30982d" x="108" y="269.568" style="stroke: #000000; stroke-width: 0.8"/>
      </g>
     </g>
     <g id="text_10">
      <!-- 20 -->
      <g transform="translate(88.275 273.367219) scale(0.1 -0.1)">
       <defs>
        <path id="DejaVuSans-32" d="M 1228 531 
L 3431 531 
L 3431 0 
L 469 0 
L 469 531 
Q 828 903 1448 1529 
Q 2069 2156 2228 2338 
Q 2531 2678 2651 2914 
Q 2772 3150 2772 3378 
Q 2772 3750 2511 3984 
Q 2250 4219 1831 4219 
Q 1534 4219 1204 4116 
Q 875 4013 500 3803 
L 500 4441 
Q 881 4594 1212 4672 
Q 1544 4750 1819 4750 
Q 2544 4750 2975 4387 
Q 3406 4025 3406 3419 
Q 3406 3131 3298 2873 
Q 3191 2616 2906 2266 
Q 2828 2175 2409 1742 
Q 1991 1309 1228 531 
z
" transform="scale(0.015625)"/>
       </defs>
       <use xlink:href="#DejaVuSans-32"/>
       <use xlink:href="#DejaVuSans-30" x="63.623047"/>
      </g>
     </g>
    </g>
    <g id="ytick_3">
     <g id="line2d_19">
      <path d="M 108 215.136 
L 388.8 215.136 
" clip-path="url(#p7a5909f94d)" style="fill: none; stroke: #b0b0b0; stroke-width: 0.8; stroke-linecap: square"/>
     </g>
     <g id="line2d_20">
      <g>
       <use xlink:href="#mfcee30982d" x="108" y="215.136" style="stroke: #000000; stroke-width: 0.8"/>
      </g>
     </g>
     <g id="text_11">
      <!-- 40 -->
      <g transform="translate(88.275 218.935219) scale(0.1 -0.1)">
       <defs>
        <path id="DejaVuSans-34" d="M 2419 4116 
L 825 1625 
L 2419 1625 
L 2419 4116 
z
M 2253 4666 
L 3047 4666 
L 3047 1625 
L 3713 1625 
L 3713 1100 
L 3047 1100 
L 3047 0 
L 2419 0 
L 2419 1100 
L 313 1100 
L 313 1709 
L 2253 4666 
z
" transform="scale(0.015625)"/>
       </defs>
       <use xlink:href="#DejaVuSans-34"/>
       <use xlink:href="#DejaVuSans-30" x="63.623047"/>
      </g>
     </g>
    </g>
    <g id="ytick_4">
     <g id="line2d_21">
      <path d="M 108 160.704 
L 388.8 160.704 
" clip-path="url(#p7a5909f94d)" style="fill: none; stroke: #b0b0b0; stroke-width: 0.8; stroke-linecap: square"/>
     </g>
     <g id="line2d_22">
      <g>
       <use xlink:href="#mfcee30982d" x="108" y="160.704" style="stroke: #000000; stroke-width: 0.8"/>
      </g>
     </g>
     <g id="text_12">
      <!-- 60 -->
      <g transform="translate(88.275 164.503219) scale(0.1 -0.1)">
       <defs>
        <path id="DejaVuSans-36" d="M 2113 2584 
Q 1688 2584 1439 2293 
Q 1191 2003 1191 1497 
Q 1191 994 1439 701 
Q 1688 409 2113 409 
Q 2538 409 2786 701 
Q 3034 994 3034 1497 
Q 3034 2003 2786 2293 
Q 2538 2584 2113 2584 
z
M 3366 4563 
L 3366 3988 
Q 3128 4100 2886 4159 
Q 2644 4219 2406 4219 
Q 1781 4219 1451 3797 
Q 1122 3375 1075 2522 
Q 1259 2794 1537 2939 
Q 1816 3084 2150 3084 
Q 2853 3084 3261 2657 
Q 3669 2231 3669 1497 
Q 3669 778 3244 343 
Q 2819 -91 2113 -91 
Q 1303 -91 875 529 
Q 447 1150 447 2328 
Q 447 3434 972 4092 
Q 1497 4750 2381 4750 
Q 2619 4750 2861 4703 
Q 3103 4656 3366 4563 
z
" transform="scale(0.015625)"/>
       </defs>
       <use xlink:href="#DejaVuSans-36"/>
       <use xlink:href="#DejaVuSans-30" x="63.623047"/>
      </g>
     </g>
    </g>
    <g id="ytick_5">
     <g id="line2d_23">
      <path d="M 108 106.272 
L 388.8 106.272 
" clip-path="url(#p7a5909f94d)" style="fill: none; stroke: #b0b0b0; stroke-width: 0.8; stroke-linecap: square"/>
     </g>
     <g id="line2d_24">
      <g>
       <use xlink:href="#mfcee30982d" x="108" y="106.272" style="stroke: #000000; stroke-width: 0.8"/>
      </g>
     </g>
     <g id="text_13">
      <!-- 80 -->
      <g transform="translate(88.275 110.071219) scale(0.1 -0.1)">
       <defs>
        <path id="DejaVuSans-38" d="M 2034 2216 
Q 1584 2216 1326 1975 
Q 1069 1734 1069 1313 
Q 1069 891 1326 650 
Q 1584 409 2034 409 
Q 2484 409 2743 651 
Q 3003 894 3003 1313 
Q 3003 1734 2745 1975 
Q 2488 2216 2034 2216 
z
M 1403 2484 
Q 997 2584 770 2862 
Q 544 3141 544 3541 
Q 544 4100 942 4425 
Q 1341 4750 2034 4750 
Q 2731 4750 3128 4425 
Q 3525 4100 3525 3541 
Q 3525 3141 3298 2862 
Q 3072 2584 2669 2484 
Q 3125 2378 3379 2068 
Q 3634 1759 3634 1313 
Q 3634 634 3220 271 
Q 2806 -91 2034 -91 
Q 1263 -91 848 271 
Q 434 634 434 1313 
Q 434 1759 690 2068 
Q 947 2378 1403 2484 
z
M 1172 3481 
Q 1172 3119 1398 2916 
Q 1625 2713 2034 2713 
Q 2441 2713 2670 2916 
Q 2900 3119 2900 3481 
Q 2900 3844 2670 4047 
Q 2441 4250 2034 4250 
Q 1625 4250 1398 4047 
Q 1172 3844 1172 3481 
z
" transform="scale(0.015625)"/>
       </defs>
       <use xlink:href="#DejaVuSans-38"/>
       <use xlink:href="#DejaVuSans-30" x="63.623047"/>
      </g>
     </g>
    </g>
    <g id="ytick_6">
     <g id="line2d_25">
      <path d="M 108 51.84 
L 388.8 51.84 
" clip-path="url(#p7a5909f94d)" style="fill: none; stroke: #b0b0b0; stroke-width: 0.8; stroke-linecap: square"/>
     </g>
     <g id="line2d_26">
      <g>
       <use xlink:href="#mfcee30982d" x="108" y="51.84" style="stroke: #000000; stroke-width: 0.8"/>
      </g>
     </g>
     <g id="text_14">
      <!-- 100 -->
      <g transform="translate(81.9125 55.639219) scale(0.1 -0.1)">
       <use xlink:href="#DejaVuSans-31"/>
       <use xlink:href="#DejaVuSans-30" x="63.623047"/>
       <use xlink:href="#DejaVuSans-30" x="127.246094"/>
      </g>
     </g>
    </g>
    <g id="text_15">
     <!-- $h$ distance between plate -->
     <g transform="translate(75.8125 251.37) rotate(-90) scale(0.1 -0.1)">
      <defs>
       <path id="DejaVuSans-Oblique-68" d="M 3566 2113 
L 3156 0 
L 2578 0 
L 2988 2091 
Q 3016 2238 3031 2350 
Q 3047 2463 3047 2528 
Q 3047 2791 2881 2937 
Q 2716 3084 2419 3084 
Q 1956 3084 1617 2771 
Q 1278 2459 1178 1941 
L 800 0 
L 225 0 
L 1172 4863 
L 1747 4863 
L 1375 2950 
Q 1594 3244 1934 3414 
Q 2275 3584 2650 3584 
Q 3113 3584 3367 3334 
Q 3622 3084 3622 2631 
Q 3622 2519 3608 2391 
Q 3594 2263 3566 2113 
z
" transform="scale(0.015625)"/>
       <path id="DejaVuSans-74" d="M 1172 4494 
L 1172 3500 
L 2356 3500 
L 2356 3053 
L 1172 3053 
L 1172 1153 
Q 1172 725 1289 603 
Q 1406 481 1766 481 
L 2356 481 
L 2356 0 
L 1766 0 
Q 1100 0 847 248 
Q 594 497 594 1153 
L 594 3053 
L 172 3053 
L 172 3500 
L 594 3500 
L 594 4494 
L 1172 4494 
z
" transform="scale(0.015625)"/>
       <path id="DejaVuSans-63" d="M 3122 3366 
L 3122 2828 
Q 2878 2963 2633 3030 
Q 2388 3097 2138 3097 
Q 1578 3097 1268 2742 
Q 959 2388 959 1747 
Q 959 1106 1268 751 
Q 1578 397 2138 397 
Q 2388 397 2633 464 
Q 2878 531 3122 666 
L 3122 134 
Q 2881 22 2623 -34 
Q 2366 -91 2075 -91 
Q 1284 -91 818 406 
Q 353 903 353 1747 
Q 353 2603 823 3093 
Q 1294 3584 2113 3584 
Q 2378 3584 2631 3529 
Q 2884 3475 3122 3366 
z
" transform="scale(0.015625)"/>
       <path id="DejaVuSans-62" d="M 3116 1747 
Q 3116 2381 2855 2742 
Q 2594 3103 2138 3103 
Q 1681 3103 1420 2742 
Q 1159 2381 1159 1747 
Q 1159 1113 1420 752 
Q 1681 391 2138 391 
Q 2594 391 2855 752 
Q 3116 1113 3116 1747 
z
M 1159 2969 
Q 1341 3281 1617 3432 
Q 1894 3584 2278 3584 
Q 2916 3584 3314 3078 
Q 3713 2572 3713 1747 
Q 3713 922 3314 415 
Q 2916 -91 2278 -91 
Q 1894 -91 1617 61 
Q 1341 213 1159 525 
L 1159 0 
L 581 0 
L 581 4863 
L 1159 4863 
L 1159 2969 
z
" transform="scale(0.015625)"/>
       <path id="DejaVuSans-77" d="M 269 3500 
L 844 3500 
L 1563 769 
L 2278 3500 
L 2956 3500 
L 3675 769 
L 4391 3500 
L 4966 3500 
L 4050 0 
L 3372 0 
L 2619 2869 
L 1863 0 
L 1184 0 
L 269 3500 
z
" transform="scale(0.015625)"/>
       <path id="DejaVuSans-70" d="M 1159 525 
L 1159 -1331 
L 581 -1331 
L 581 3500 
L 1159 3500 
L 1159 2969 
Q 1341 3281 1617 3432 
Q 1894 3584 2278 3584 
Q 2916 3584 3314 3078 
Q 3713 2572 3713 1747 
Q 3713 922 3314 415 
Q 2916 -91 2278 -91 
Q 1894 -91 1617 61 
Q 1341 213 1159 525 
z
M 3116 1747 
Q 3116 2381 2855 2742 
Q 2594 3103 2138 3103 
Q 1681 3103 1420 2742 
Q 1159 2381 1159 1747 
Q 1159 1113 1420 752 
Q 1681 391 2138 391 
Q 2594 391 2855 752 
Q 3116 1113 3116 1747 
z
" transform="scale(0.015625)"/>
      </defs>
      <use xlink:href="#DejaVuSans-Oblique-68" transform="translate(0 0.015625)"/>
      <use xlink:href="#DejaVuSans-20" transform="translate(63.378906 0.015625)"/>
      <use xlink:href="#DejaVuSans-64" transform="translate(95.166016 0.015625)"/>
      <use xlink:href="#DejaVuSans-69" transform="translate(158.642578 0.015625)"/>
      <use xlink:href="#DejaVuSans-73" transform="translate(186.425781 0.015625)"/>
      <use xlink:href="#DejaVuSans-74" transform="translate(238.525391 0.015625)"/>
      <use xlink:href="#DejaVuSans-61" transform="translate(277.734375 0.015625)"/>
      <use xlink:href="#DejaVuSans-6e" transform="translate(339.013672 0.015625)"/>
      <use xlink:href="#DejaVuSans-63" transform="translate(402.392578 0.015625)"/>
      <use xlink:href="#DejaVuSans-65" transform="translate(457.373047 0.015625)"/>
      <use xlink:href="#DejaVuSans-20" transform="translate(518.896484 0.015625)"/>
      <use xlink:href="#DejaVuSans-62" transform="translate(550.683594 0.015625)"/>
      <use xlink:href="#DejaVuSans-65" transform="translate(614.160156 0.015625)"/>
      <use xlink:href="#DejaVuSans-74" transform="translate(675.683594 0.015625)"/>
      <use xlink:href="#DejaVuSans-77" transform="translate(714.892578 0.015625)"/>
      <use xlink:href="#DejaVuSans-65" transform="translate(796.679688 0.015625)"/>
      <use xlink:href="#DejaVuSans-65" transform="translate(858.203125 0.015625)"/>
      <use xlink:href="#DejaVuSans-6e" transform="translate(919.726562 0.015625)"/>
      <use xlink:href="#DejaVuSans-20" transform="translate(983.105469 0.015625)"/>
      <use xlink:href="#DejaVuSans-70" transform="translate(1014.892578 0.015625)"/>
      <use xlink:href="#DejaVuSans-6c" transform="translate(1078.369141 0.015625)"/>
      <use xlink:href="#DejaVuSans-61" transform="translate(1106.152344 0.015625)"/>
      <use xlink:href="#DejaVuSans-74" transform="translate(1167.431641 0.015625)"/>
      <use xlink:href="#DejaVuSans-65" transform="translate(1206.640625 0.015625)"/>
     </g>
    </g>
   </g>
   <g id="line2d_27">
    <path d="M 144.827071 269.568 
L 147.638223 269.350272 
L 150.699705 268.697088 
L 153.484445 267.826176 
L 156.888407 266.519808 
L 161.844294 264.342528 
L 171.05102 259.987968 
L 189.069733 251.496576 
L 206.59683 243.222912 
L 214.366699 239.303808 
L 220.369087 236.037888 
L 225.496072 232.989696 
L 229.799627 230.159232 
L 233.359822 227.546496 
L 236.268609 225.151488 
L 238.838596 222.75648 
L 241.075204 220.361472 
L 242.98742 217.966464 
L 244.453912 215.789184 
L 245.671533 213.611904 
L 246.650681 211.434624 
L 247.402055 209.257344 
L 247.936398 207.080064 
L 248.286175 204.685056 
L 248.4 202.290048 
L 248.508758 199.89504 
L 248.8272 197.500032 
L 249.399135 194.887296 
L 250.190247 192.27456 
L 251.277172 189.444096 
L 252.694313 186.395904 
L 254.471342 183.129984 
L 256.631634 179.646336 
L 259.190552 175.94496 
L 262.325022 171.808128 
L 266.248339 167.018112 
L 271.185608 161.357184 
L 278.536278 153.301248 
L 292.480281 138.060288 
L 298.717228 130.875264 
L 303.913154 124.561152 
L 308.648159 118.464768 
L 313.099149 112.368384 
L 317.273253 106.272 
L 321.323655 99.957888 
L 325.379369 93.20832 
L 329.556239 85.805568 
L 334.441439 76.660992 
L 341.751911 62.944128 
L 344.096867 59.025024 
L 345.88485 56.412288 
L 347.493289 54.452736 
L 348.873773 53.146368 
L 349.811999 52.493184 
L 350.74161 52.057728 
L 351.972929 51.84 
L 351.972929 51.84 
" clip-path="url(#p7a5909f94d)" style="fill: none; stroke: #ff0000; stroke-width: 2; stroke-linecap: square"/>
   </g>
   <g id="line2d_28">
    <path d="M 178.2 269.568 
L 183.089927 269.350272 
L 186.650049 268.914816 
L 190.109298 268.261632 
L 193.505892 267.39072 
L 196.842957 266.30208 
L 200.117083 264.995712 
L 203.323752 263.471616 
L 206.458917 261.729792 
L 209.519562 259.77024 
L 212.50389 257.59296 
L 215.411345 255.197952 
L 218.242553 252.585216 
L 221.199966 249.537024 
L 224.047115 246.271104 
L 226.796041 242.787456 
L 229.606784 238.868352 
L 232.451347 234.513792 
L 235.311068 229.723776 
L 238.174836 224.498304 
L 241.143403 218.619648 
L 244.19391 212.087808 
L 247.405305 204.685056 
L 250.84276 196.193664 
L 254.64659 186.178176 
L 258.945605 174.203136 
L 264.397096 158.308992 
L 279.350054 114.327936 
L 283.583155 102.788352 
L 287.163447 93.643776 
L 290.373789 86.023296 
L 293.361347 79.491456 
L 296.08788 74.048256 
L 298.615972 69.475968 
L 301.032692 65.556864 
L 303.306563 62.290944 
L 305.383133 59.678208 
L 307.387133 57.500928 
L 309.283045 55.759104 
L 311.000459 54.452736 
L 312.800636 53.364096 
L 314.218297 52.710912 
L 315.502704 52.275456 
L 316.410246 52.057728 
L 318.6 51.84 
L 318.6 51.84 
" clip-path="url(#p7a5909f94d)" style="fill: none; stroke: #0000ff; stroke-width: 2; stroke-linecap: square"/>
   </g>
   <g id="line2d_29">
    <path d="M 108 202.286348 
L 388.8 202.286348 
" clip-path="url(#p7a5909f94d)" style="fill: none; stroke-dasharray: 1,1.65; stroke-dashoffset: 0; stroke: #000000"/>
   </g>
   <g id="line2d_30">
    <path d="M 108 269.568 
L 388.8 269.568 
" clip-path="url(#p7a5909f94d)" style="fill: none; stroke-dasharray: 3.7,1.6; stroke-dashoffset: 0; stroke: #000000"/>
   </g>
   <g id="line2d_31">
    <path d="M 108 51.84 
L 388.8 51.84 
" clip-path="url(#p7a5909f94d)" style="fill: none; stroke: #000000; stroke-linecap: square"/>
    <defs>
     <path id="m4f862fd74d" d="M -3 0 
L 3 0 
M 0 3 
L 0 -3 
" style="stroke: #000000"/>
    </defs>
    <g clip-path="url(#p7a5909f94d)">
     <use xlink:href="#m4f862fd74d" x="108" y="51.84" style="stroke: #000000"/>
     <use xlink:href="#m4f862fd74d" x="388.8" y="51.84" style="stroke: #000000"/>
    </g>
   </g>
   <g id="patch_3">
    <path d="M 108 324 
L 108 51.84 
" style="fill: none; stroke: #000000; stroke-width: 0.8; stroke-linejoin: miter; stroke-linecap: square"/>
   </g>
   <g id="patch_4">
    <path d="M 388.8 324 
L 388.8 51.84 
" style="fill: none; stroke: #000000; stroke-width: 0.8; stroke-linejoin: miter; stroke-linecap: square"/>
   </g>
   <g id="patch_5">
    <path d="M 108 324 
L 388.8 324 
" style="fill: none; stroke: #000000; stroke-width: 0.8; stroke-linejoin: miter; stroke-linecap: square"/>
   </g>
   <g id="patch_6">
    <path d="M 108 51.84 
L 388.8 51.84 
" style="fill: none; stroke: #000000; stroke-width: 0.8; stroke-linejoin: miter; stroke-linecap: square"/>
   </g>
   <g id="text_16">
    <g id="patch_7">
     <path d="M 304.555625 301.863687 
L 386.34 301.863687 
L 386.34 286.185562 
L 304.555625 286.185562 
z
" style="fill: #ffffff; stroke: #000000; stroke-linejoin: miter"/>
    </g>
    <!-- a: 60 b: 40 c: 0 -->
    <g transform="translate(307.555625 296.784) scale(0.1 -0.1)">
     <defs>
      <path id="DejaVuSans-3a" d="M 750 794 
L 1409 794 
L 1409 0 
L 750 0 
L 750 794 
z
M 750 3309 
L 1409 3309 
L 1409 2516 
L 750 2516 
L 750 3309 
z
" transform="scale(0.015625)"/>
     </defs>
     <use xlink:href="#DejaVuSans-61"/>
     <use xlink:href="#DejaVuSans-3a" x="61.279297"/>
     <use xlink:href="#DejaVuSans-20" x="94.970703"/>
     <use xlink:href="#DejaVuSans-36" x="126.757812"/>
     <use xlink:href="#DejaVuSans-30" x="190.380859"/>
     <use xlink:href="#DejaVuSans-20" x="254.003906"/>
     <use xlink:href="#DejaVuSans-62" x="285.791016"/>
     <use xlink:href="#DejaVuSans-3a" x="349.267578"/>
     <use xlink:href="#DejaVuSans-20" x="382.958984"/>
     <use xlink:href="#DejaVuSans-34" x="414.746094"/>
     <use xlink:href="#DejaVuSans-30" x="478.369141"/>
     <use xlink:href="#DejaVuSans-20" x="541.992188"/>
     <use xlink:href="#DejaVuSans-63" x="573.779297"/>
     <use xlink:href="#DejaVuSans-3a" x="628.759766"/>
     <use xlink:href="#DejaVuSans-20" x="662.451172"/>
     <use xlink:href="#DejaVuSans-30" x="694.238281"/>
    </g>
   </g>
   <g id="text_17">
    <!-- 44.72 -->
    <g transform="translate(390.36 206.368748) scale(0.1 -0.1)">
     <defs>
      <path id="DejaVuSans-2e" d="M 684 794 
L 1344 794 
L 1344 0 
L 684 0 
L 684 794 
z
" transform="scale(0.015625)"/>
      <path id="DejaVuSans-37" d="M 525 4666 
L 3525 4666 
L 3525 4397 
L 1831 0 
L 1172 0 
L 2766 4134 
L 525 4134 
L 525 4666 
z
" transform="scale(0.015625)"/>
     </defs>
     <use xlink:href="#DejaVuSans-34"/>
     <use xlink:href="#DejaVuSans-34" x="63.623047"/>
     <use xlink:href="#DejaVuSans-2e" x="127.246094"/>
     <use xlink:href="#DejaVuSans-37" x="159.033203"/>
     <use xlink:href="#DejaVuSans-32" x="222.65625"/>
    </g>
   </g>
   <g id="text_18">
    <!-- 20.0 -->
    <g transform="translate(390.36 273.6504) scale(0.1 -0.1)">
     <use xlink:href="#DejaVuSans-32"/>
     <use xlink:href="#DejaVuSans-30" x="63.623047"/>
     <use xlink:href="#DejaVuSans-2e" x="127.246094"/>
     <use xlink:href="#DejaVuSans-30" x="159.033203"/>
    </g>
   </g>
   <g id="text_19">
    <g id="patch_8">
     <path d="M 352.872929 67.806087 
L 393.863554 67.806087 
L 393.863554 52.127962 
L 352.872929 52.127962 
z
" style="fill: #ffffff; stroke: #ff0000; stroke-linejoin: miter"/>
    </g>
    <!-- 132.79 -->
    <g transform="translate(355.872929 62.7264) scale(0.1 -0.1)">
     <defs>
      <path id="DejaVuSans-33" d="M 2597 2516 
Q 3050 2419 3304 2112 
Q 3559 1806 3559 1356 
Q 3559 666 3084 287 
Q 2609 -91 1734 -91 
Q 1441 -91 1130 -33 
Q 819 25 488 141 
L 488 750 
Q 750 597 1062 519 
Q 1375 441 1716 441 
Q 2309 441 2620 675 
Q 2931 909 2931 1356 
Q 2931 1769 2642 2001 
Q 2353 2234 1838 2234 
L 1294 2234 
L 1294 2753 
L 1863 2753 
Q 2328 2753 2575 2939 
Q 2822 3125 2822 3475 
Q 2822 3834 2567 4026 
Q 2313 4219 1838 4219 
Q 1578 4219 1281 4162 
Q 984 4106 628 3988 
L 628 4550 
Q 988 4650 1302 4700 
Q 1616 4750 1894 4750 
Q 2613 4750 3031 4423 
Q 3450 4097 3450 3541 
Q 3450 3153 3228 2886 
Q 3006 2619 2597 2516 
z
" transform="scale(0.015625)"/>
      <path id="DejaVuSans-39" d="M 703 97 
L 703 672 
Q 941 559 1184 500 
Q 1428 441 1663 441 
Q 2288 441 2617 861 
Q 2947 1281 2994 2138 
Q 2813 1869 2534 1725 
Q 2256 1581 1919 1581 
Q 1219 1581 811 2004 
Q 403 2428 403 3163 
Q 403 3881 828 4315 
Q 1253 4750 1959 4750 
Q 2769 4750 3195 4129 
Q 3622 3509 3622 2328 
Q 3622 1225 3098 567 
Q 2575 -91 1691 -91 
Q 1453 -91 1209 -44 
Q 966 3 703 97 
z
M 1959 2075 
Q 2384 2075 2632 2365 
Q 2881 2656 2881 3163 
Q 2881 3666 2632 3958 
Q 2384 4250 1959 4250 
Q 1534 4250 1286 3958 
Q 1038 3666 1038 3163 
Q 1038 2656 1286 2365 
Q 1534 2075 1959 2075 
z
" transform="scale(0.015625)"/>
     </defs>
     <use xlink:href="#DejaVuSans-31"/>
     <use xlink:href="#DejaVuSans-33" x="63.623047"/>
     <use xlink:href="#DejaVuSans-32" x="127.246094"/>
     <use xlink:href="#DejaVuSans-2e" x="190.869141"/>
     <use xlink:href="#DejaVuSans-37" x="222.65625"/>
     <use xlink:href="#DejaVuSans-39" x="286.279297"/>
    </g>
   </g>
   <g id="text_20">
    <g id="patch_9">
     <path d="M 106.836446 270.020967 
L 147.827071 270.020967 
L 147.827071 254.342842 
L 106.836446 254.342842 
z
" style="fill: #ffffff; stroke: #ff0000; stroke-linejoin: miter"/>
    </g>
    <!-- 132.79 -->
    <g transform="translate(109.836446 264.94128) scale(0.1 -0.1)">
     <use xlink:href="#DejaVuSans-31"/>
     <use xlink:href="#DejaVuSans-33" x="63.623047"/>
     <use xlink:href="#DejaVuSans-32" x="127.246094"/>
     <use xlink:href="#DejaVuSans-2e" x="190.869141"/>
     <use xlink:href="#DejaVuSans-37" x="222.65625"/>
     <use xlink:href="#DejaVuSans-39" x="286.279297"/>
    </g>
   </g>
   <g id="text_21">
    <g id="patch_10">
     <path d="M 271.34 320.9352 
L 386.34 320.9352 
L 386.34 305.2352 
L 271.34 305.2352 
z
" style="fill: #ffffff; stroke: #ff0000; stroke-linejoin: miter"/>
    </g>
    <!-- Rigid range: 265.57 $^\circ$ -->
    <g transform="translate(274.34 315.8352) scale(0.1 -0.1)">
     <defs>
      <path id="DejaVuSans-52" d="M 2841 2188 
Q 3044 2119 3236 1894 
Q 3428 1669 3622 1275 
L 4263 0 
L 3584 0 
L 2988 1197 
Q 2756 1666 2539 1819 
Q 2322 1972 1947 1972 
L 1259 1972 
L 1259 0 
L 628 0 
L 628 4666 
L 2053 4666 
Q 2853 4666 3247 4331 
Q 3641 3997 3641 3322 
Q 3641 2881 3436 2590 
Q 3231 2300 2841 2188 
z
M 1259 4147 
L 1259 2491 
L 2053 2491 
Q 2509 2491 2742 2702 
Q 2975 2913 2975 3322 
Q 2975 3731 2742 3939 
Q 2509 4147 2053 4147 
L 1259 4147 
z
" transform="scale(0.015625)"/>
      <path id="DejaVuSans-2218" d="M 2000 2619 
Q 1750 2619 1578 2445 
Q 1406 2272 1406 2022 
Q 1406 1775 1578 1605 
Q 1750 1435 2000 1435 
Q 2250 1435 2422 1605 
Q 2594 1775 2594 2022 
Q 2594 2269 2420 2444 
Q 2247 2619 2000 2619 
z
M 2000 3022 
Q 2200 3022 2384 2945 
Q 2569 2869 2703 2725 
Q 2847 2585 2919 2406 
Q 2991 2228 2991 2022 
Q 2991 1610 2702 1324 
Q 2413 1038 1994 1038 
Q 1572 1038 1290 1319 
Q 1009 1600 1009 2022 
Q 1009 2441 1296 2731 
Q 1584 3022 2000 3022 
z
" transform="scale(0.015625)"/>
     </defs>
     <use xlink:href="#DejaVuSans-52" transform="translate(0 0.015625)"/>
     <use xlink:href="#DejaVuSans-69" transform="translate(69.482422 0.015625)"/>
     <use xlink:href="#DejaVuSans-67" transform="translate(97.265625 0.015625)"/>
     <use xlink:href="#DejaVuSans-69" transform="translate(160.742188 0.015625)"/>
     <use xlink:href="#DejaVuSans-64" transform="translate(188.525391 0.015625)"/>
     <use xlink:href="#DejaVuSans-20" transform="translate(252.001953 0.015625)"/>
     <use xlink:href="#DejaVuSans-72" transform="translate(283.789062 0.015625)"/>
     <use xlink:href="#DejaVuSans-61" transform="translate(324.902344 0.015625)"/>
     <use xlink:href="#DejaVuSans-6e" transform="translate(386.181641 0.015625)"/>
     <use xlink:href="#DejaVuSans-67" transform="translate(449.560547 0.015625)"/>
     <use xlink:href="#DejaVuSans-65" transform="translate(513.037109 0.015625)"/>
     <use xlink:href="#DejaVuSans-3a" transform="translate(574.560547 0.015625)"/>
     <use xlink:href="#DejaVuSans-20" transform="translate(608.251953 0.015625)"/>
     <use xlink:href="#DejaVuSans-32" transform="translate(640.039062 0.015625)"/>
     <use xlink:href="#DejaVuSans-36" transform="translate(703.662109 0.015625)"/>
     <use xlink:href="#DejaVuSans-35" transform="translate(767.285156 0.015625)"/>
     <use xlink:href="#DejaVuSans-2e" transform="translate(830.908203 0.015625)"/>
     <use xlink:href="#DejaVuSans-35" transform="translate(862.695312 0.015625)"/>
     <use xlink:href="#DejaVuSans-37" transform="translate(919.068359 0.015625)"/>
     <use xlink:href="#DejaVuSans-20" transform="translate(982.691406 0.015625)"/>
     <use xlink:href="#DejaVuSans-2218" transform="translate(1029.073242 38.296875) scale(0.7)"/>
    </g>
   </g>
   <g id="text_22">
    <g id="patch_11">
     <path d="M 312.84 282.8328 
L 386.34 282.8328 
L 386.34 267.1328 
L 312.84 267.1328 
z
" style="fill: #ffffff; stroke: #0000ff; stroke-linejoin: miter"/>
    </g>
    <!-- $h$ range: 80.0 -->
    <g transform="translate(315.84 277.7328) scale(0.1 -0.1)">
     <use xlink:href="#DejaVuSans-Oblique-68" transform="translate(0 0.015625)"/>
     <use xlink:href="#DejaVuSans-20" transform="translate(63.378906 0.015625)"/>
     <use xlink:href="#DejaVuSans-72" transform="translate(95.166016 0.015625)"/>
     <use xlink:href="#DejaVuSans-61" transform="translate(136.279297 0.015625)"/>
     <use xlink:href="#DejaVuSans-6e" transform="translate(197.558594 0.015625)"/>
     <use xlink:href="#DejaVuSans-67" transform="translate(260.9375 0.015625)"/>
     <use xlink:href="#DejaVuSans-65" transform="translate(324.414062 0.015625)"/>
     <use xlink:href="#DejaVuSans-3a" transform="translate(385.9375 0.015625)"/>
     <use xlink:href="#DejaVuSans-20" transform="translate(419.628906 0.015625)"/>
     <use xlink:href="#DejaVuSans-38" transform="translate(451.416016 0.015625)"/>
     <use xlink:href="#DejaVuSans-30" transform="translate(515.039062 0.015625)"/>
     <use xlink:href="#DejaVuSans-2e" transform="translate(578.662109 0.015625)"/>
     <use xlink:href="#DejaVuSans-30" transform="translate(610.449219 0.015625)"/>
    </g>
   </g>
   <g id="text_23">
    <!-- Thysan-ori $\alpha_{1}$ 90, $\alpha_{2}$ 96.0, $\alpha_{3}$ 30, $\alpha_{4}$ 144.0 -->
    <g transform="translate(122.82 45.84) scale(0.12 -0.12)">
     <defs>
      <path id="DejaVuSans-54" d="M -19 4666 
L 3928 4666 
L 3928 4134 
L 2272 4134 
L 2272 0 
L 1638 0 
L 1638 4134 
L -19 4134 
L -19 4666 
z
" transform="scale(0.015625)"/>
      <path id="DejaVuSans-68" d="M 3513 2113 
L 3513 0 
L 2938 0 
L 2938 2094 
Q 2938 2591 2744 2837 
Q 2550 3084 2163 3084 
Q 1697 3084 1428 2787 
Q 1159 2491 1159 1978 
L 1159 0 
L 581 0 
L 581 4863 
L 1159 4863 
L 1159 2956 
Q 1366 3272 1645 3428 
Q 1925 3584 2291 3584 
Q 2894 3584 3203 3211 
Q 3513 2838 3513 2113 
z
" transform="scale(0.015625)"/>
      <path id="DejaVuSans-79" d="M 2059 -325 
Q 1816 -950 1584 -1140 
Q 1353 -1331 966 -1331 
L 506 -1331 
L 506 -850 
L 844 -850 
Q 1081 -850 1212 -737 
Q 1344 -625 1503 -206 
L 1606 56 
L 191 3500 
L 800 3500 
L 1894 763 
L 2988 3500 
L 3597 3500 
L 2059 -325 
z
" transform="scale(0.015625)"/>
      <path id="DejaVuSans-2d" d="M 313 2009 
L 1997 2009 
L 1997 1497 
L 313 1497 
L 313 2009 
z
" transform="scale(0.015625)"/>
      <path id="DejaVuSans-6f" d="M 1959 3097 
Q 1497 3097 1228 2736 
Q 959 2375 959 1747 
Q 959 1119 1226 758 
Q 1494 397 1959 397 
Q 2419 397 2687 759 
Q 2956 1122 2956 1747 
Q 2956 2369 2687 2733 
Q 2419 3097 1959 3097 
z
M 1959 3584 
Q 2709 3584 3137 3096 
Q 3566 2609 3566 1747 
Q 3566 888 3137 398 
Q 2709 -91 1959 -91 
Q 1206 -91 779 398 
Q 353 888 353 1747 
Q 353 2609 779 3096 
Q 1206 3584 1959 3584 
z
" transform="scale(0.015625)"/>
      <path id="DejaVuSans-Oblique-3b1" d="M 2619 1628 
L 2622 2350 
Q 2625 3088 2069 3091 
Q 1653 3094 1394 2747 
Q 1069 2319 959 1747 
Q 825 1059 994 731 
Q 1169 397 1547 397 
Q 1966 397 2319 1063 
L 2619 1628 
z
M 2166 3578 
Q 3141 3594 3128 2584 
Q 3128 2584 3616 3500 
L 4128 3500 
L 3119 1603 
L 3109 919 
Q 3109 766 3194 638 
Q 3291 488 3391 488 
L 3669 488 
L 3575 0 
L 3228 0 
Q 2934 0 2722 263 
Q 2622 394 2619 669 
Q 2416 334 2066 50 
Q 1900 -81 1453 -78 
Q 722 -72 456 397 
Q 184 884 353 1747 
Q 534 2675 1009 3097 
Q 1544 3569 2166 3578 
z
" transform="scale(0.015625)"/>
      <path id="DejaVuSans-2c" d="M 750 794 
L 1409 794 
L 1409 256 
L 897 -744 
L 494 -744 
L 750 256 
L 750 794 
z
" transform="scale(0.015625)"/>
     </defs>
     <use xlink:href="#DejaVuSans-54" transform="translate(0 0.015625)"/>
     <use xlink:href="#DejaVuSans-68" transform="translate(61.083984 0.015625)"/>
     <use xlink:href="#DejaVuSans-79" transform="translate(124.462891 0.015625)"/>
     <use xlink:href="#DejaVuSans-73" transform="translate(183.642578 0.015625)"/>
     <use xlink:href="#DejaVuSans-61" transform="translate(235.742188 0.015625)"/>
     <use xlink:href="#DejaVuSans-6e" transform="translate(297.021484 0.015625)"/>
     <use xlink:href="#DejaVuSans-2d" transform="translate(360.400391 0.015625)"/>
     <use xlink:href="#DejaVuSans-6f" transform="translate(396.484375 0.015625)"/>
     <use xlink:href="#DejaVuSans-72" transform="translate(457.666016 0.015625)"/>
     <use xlink:href="#DejaVuSans-69" transform="translate(498.779297 0.015625)"/>
     <use xlink:href="#DejaVuSans-20" transform="translate(526.5625 0.015625)"/>
     <use xlink:href="#DejaVuSans-Oblique-3b1" transform="translate(558.349609 0.015625)"/>
     <use xlink:href="#DejaVuSans-31" transform="translate(624.267578 -16.390625) scale(0.7)"/>
     <use xlink:href="#DejaVuSans-20" transform="translate(671.538086 0.015625)"/>
     <use xlink:href="#DejaVuSans-39" transform="translate(703.325195 0.015625)"/>
     <use xlink:href="#DejaVuSans-30" transform="translate(766.948242 0.015625)"/>
     <use xlink:href="#DejaVuSans-2c" transform="translate(830.571289 0.015625)"/>
     <use xlink:href="#DejaVuSans-20" transform="translate(862.358398 0.015625)"/>
     <use xlink:href="#DejaVuSans-Oblique-3b1" transform="translate(894.145508 0.015625)"/>
     <use xlink:href="#DejaVuSans-32" transform="translate(960.063477 -16.390625) scale(0.7)"/>
     <use xlink:href="#DejaVuSans-20" transform="translate(1007.333984 0.015625)"/>
     <use xlink:href="#DejaVuSans-39" transform="translate(1039.121094 0.015625)"/>
     <use xlink:href="#DejaVuSans-36" transform="translate(1102.744141 0.015625)"/>
     <use xlink:href="#DejaVuSans-2e" transform="translate(1166.367188 0.015625)"/>
     <use xlink:href="#DejaVuSans-30" transform="translate(1198.154297 0.015625)"/>
     <use xlink:href="#DejaVuSans-2c" transform="translate(1261.777344 0.015625)"/>
     <use xlink:href="#DejaVuSans-20" transform="translate(1293.564453 0.015625)"/>
     <use xlink:href="#DejaVuSans-Oblique-3b1" transform="translate(1325.351562 0.015625)"/>
     <use xlink:href="#DejaVuSans-33" transform="translate(1391.269531 -16.390625) scale(0.7)"/>
     <use xlink:href="#DejaVuSans-20" transform="translate(1438.540039 0.015625)"/>
     <use xlink:href="#DejaVuSans-33" transform="translate(1470.327148 0.015625)"/>
     <use xlink:href="#DejaVuSans-30" transform="translate(1533.950195 0.015625)"/>
     <use xlink:href="#DejaVuSans-2c" transform="translate(1597.573242 0.015625)"/>
     <use xlink:href="#DejaVuSans-20" transform="translate(1629.360352 0.015625)"/>
     <use xlink:href="#DejaVuSans-Oblique-3b1" transform="translate(1661.147461 0.015625)"/>
     <use xlink:href="#DejaVuSans-34" transform="translate(1727.06543 -16.390625) scale(0.7)"/>
     <use xlink:href="#DejaVuSans-20" transform="translate(1774.335938 0.015625)"/>
     <use xlink:href="#DejaVuSans-31" transform="translate(1806.123047 0.015625)"/>
     <use xlink:href="#DejaVuSans-34" transform="translate(1869.746094 0.015625)"/>
     <use xlink:href="#DejaVuSans-34" transform="translate(1933.369141 0.015625)"/>
     <use xlink:href="#DejaVuSans-2e" transform="translate(1996.992188 0.015625)"/>
     <use xlink:href="#DejaVuSans-30" transform="translate(2028.779297 0.015625)"/>
    </g>
   </g>
   <g id="legend_1">
    <g id="patch_12">
     <path d="M 115 133.3525 
L 205.5 133.3525 
Q 207.5 133.3525 207.5 131.3525 
L 207.5 58.84 
Q 207.5 56.84 205.5 56.84 
L 115 56.84 
Q 113 56.84 113 58.84 
L 113 131.3525 
Q 113 133.3525 115 133.3525 
z
" style="fill: #ffffff; opacity: 0.8; stroke: #cccccc; stroke-linejoin: miter"/>
    </g>
    <g id="line2d_32">
     <path d="M 117 64.938437 
L 127 64.938437 
L 137 64.938437 
" style="fill: none; stroke: #ff0000; stroke-width: 2; stroke-linecap: square"/>
    </g>
    <g id="text_24">
     <!-- rigid angle -->
     <g transform="translate(145 68.438437) scale(0.1 -0.1)">
      <use xlink:href="#DejaVuSans-72"/>
      <use xlink:href="#DejaVuSans-69" x="41.113281"/>
      <use xlink:href="#DejaVuSans-67" x="68.896484"/>
      <use xlink:href="#DejaVuSans-69" x="132.373047"/>
      <use xlink:href="#DejaVuSans-64" x="160.15625"/>
      <use xlink:href="#DejaVuSans-20" x="223.632812"/>
      <use xlink:href="#DejaVuSans-61" x="255.419922"/>
      <use xlink:href="#DejaVuSans-6e" x="316.699219"/>
      <use xlink:href="#DejaVuSans-67" x="380.078125"/>
      <use xlink:href="#DejaVuSans-6c" x="443.554688"/>
      <use xlink:href="#DejaVuSans-65" x="471.337891"/>
     </g>
    </g>
    <g id="line2d_33">
     <path d="M 117 79.718125 
L 127 79.718125 
L 137 79.718125 
" style="fill: none; stroke: #0000ff; stroke-width: 2; stroke-linecap: square"/>
    </g>
    <g id="text_25">
     <!-- $\theta$ of linkage -->
     <g transform="translate(145 83.218125) scale(0.1 -0.1)">
      <defs>
       <path id="DejaVuSans-Oblique-3b8" d="M 2913 2219 
L 925 2219 
Q 791 1284 928 888 
Q 1100 400 1566 400 
Q 2034 400 2391 891 
Q 2703 1322 2913 2219 
z
M 3009 2750 
Q 3094 3638 2984 3950 
Q 2813 4444 2353 4444 
Q 1875 4444 1525 3956 
Q 1250 3563 1034 2750 
L 3009 2750 
z
M 2444 4913 
Q 3194 4913 3494 4250 
Q 3794 3591 3566 2422 
Q 3341 1256 2781 594 
Q 2225 -72 1475 -72 
Q 722 -72 425 594 
Q 128 1256 353 2422 
Q 581 3591 1134 4250 
Q 1691 4913 2444 4913 
z
" transform="scale(0.015625)"/>
       <path id="DejaVuSans-66" d="M 2375 4863 
L 2375 4384 
L 1825 4384 
Q 1516 4384 1395 4259 
Q 1275 4134 1275 3809 
L 1275 3500 
L 2222 3500 
L 2222 3053 
L 1275 3053 
L 1275 0 
L 697 0 
L 697 3053 
L 147 3053 
L 147 3500 
L 697 3500 
L 697 3744 
Q 697 4328 969 4595 
Q 1241 4863 1831 4863 
L 2375 4863 
z
" transform="scale(0.015625)"/>
       <path id="DejaVuSans-6b" d="M 581 4863 
L 1159 4863 
L 1159 1991 
L 2875 3500 
L 3609 3500 
L 1753 1863 
L 3688 0 
L 2938 0 
L 1159 1709 
L 1159 0 
L 581 0 
L 581 4863 
z
" transform="scale(0.015625)"/>
      </defs>
      <use xlink:href="#DejaVuSans-Oblique-3b8" transform="translate(0 0.234375)"/>
      <use xlink:href="#DejaVuSans-20" transform="translate(61.181641 0.234375)"/>
      <use xlink:href="#DejaVuSans-6f" transform="translate(92.96875 0.234375)"/>
      <use xlink:href="#DejaVuSans-66" transform="translate(154.150391 0.234375)"/>
      <use xlink:href="#DejaVuSans-20" transform="translate(189.355469 0.234375)"/>
      <use xlink:href="#DejaVuSans-6c" transform="translate(221.142578 0.234375)"/>
      <use xlink:href="#DejaVuSans-69" transform="translate(248.925781 0.234375)"/>
      <use xlink:href="#DejaVuSans-6e" transform="translate(276.708984 0.234375)"/>
      <use xlink:href="#DejaVuSans-6b" transform="translate(340.087891 0.234375)"/>
      <use xlink:href="#DejaVuSans-61" transform="translate(397.998047 0.234375)"/>
      <use xlink:href="#DejaVuSans-67" transform="translate(459.277344 0.234375)"/>
      <use xlink:href="#DejaVuSans-65" transform="translate(522.753906 0.234375)"/>
     </g>
    </g>
    <g id="line2d_34">
     <path d="M 117 94.416562 
L 127 94.416562 
L 137 94.416562 
" style="fill: none; stroke-dasharray: 1,1.65; stroke-dashoffset: 0; stroke: #000000"/>
    </g>
    <g id="text_26">
     <!-- zero line -->
     <g transform="translate(145 97.916562) scale(0.1 -0.1)">
      <defs>
       <path id="DejaVuSans-7a" d="M 353 3500 
L 3084 3500 
L 3084 2975 
L 922 459 
L 3084 459 
L 3084 0 
L 275 0 
L 275 525 
L 2438 3041 
L 353 3041 
L 353 3500 
z
" transform="scale(0.015625)"/>
      </defs>
      <use xlink:href="#DejaVuSans-7a"/>
      <use xlink:href="#DejaVuSans-65" x="52.490234"/>
      <use xlink:href="#DejaVuSans-72" x="114.013672"/>
      <use xlink:href="#DejaVuSans-6f" x="152.876953"/>
      <use xlink:href="#DejaVuSans-20" x="214.058594"/>
      <use xlink:href="#DejaVuSans-6c" x="245.845703"/>
      <use xlink:href="#DejaVuSans-69" x="273.628906"/>
      <use xlink:href="#DejaVuSans-6e" x="301.412109"/>
      <use xlink:href="#DejaVuSans-65" x="364.791016"/>
     </g>
    </g>
    <g id="line2d_35">
     <path d="M 117 109.094687 
L 127 109.094687 
L 137 109.094687 
" style="fill: none; stroke-dasharray: 3.7,1.6; stroke-dashoffset: 0; stroke: #000000"/>
    </g>
    <g id="text_27">
     <!-- min line -->
     <g transform="translate(145 112.594687) scale(0.1 -0.1)">
      <defs>
       <path id="DejaVuSans-6d" d="M 3328 2828 
Q 3544 3216 3844 3400 
Q 4144 3584 4550 3584 
Q 5097 3584 5394 3201 
Q 5691 2819 5691 2113 
L 5691 0 
L 5113 0 
L 5113 2094 
Q 5113 2597 4934 2840 
Q 4756 3084 4391 3084 
Q 3944 3084 3684 2787 
Q 3425 2491 3425 1978 
L 3425 0 
L 2847 0 
L 2847 2094 
Q 2847 2600 2669 2842 
Q 2491 3084 2119 3084 
Q 1678 3084 1418 2786 
Q 1159 2488 1159 1978 
L 1159 0 
L 581 0 
L 581 3500 
L 1159 3500 
L 1159 2956 
Q 1356 3278 1631 3431 
Q 1906 3584 2284 3584 
Q 2666 3584 2933 3390 
Q 3200 3197 3328 2828 
z
" transform="scale(0.015625)"/>
      </defs>
      <use xlink:href="#DejaVuSans-6d"/>
      <use xlink:href="#DejaVuSans-69" x="97.412109"/>
      <use xlink:href="#DejaVuSans-6e" x="125.195312"/>
      <use xlink:href="#DejaVuSans-20" x="188.574219"/>
      <use xlink:href="#DejaVuSans-6c" x="220.361328"/>
      <use xlink:href="#DejaVuSans-69" x="248.144531"/>
      <use xlink:href="#DejaVuSans-6e" x="275.927734"/>
      <use xlink:href="#DejaVuSans-65" x="339.306641"/>
     </g>
    </g>
    <g id="line2d_36">
     <path d="M 117 123.772812 
L 127 123.772812 
L 137 123.772812 
" style="fill: none; stroke: #000000; stroke-linecap: square"/>
     <g>
      <use xlink:href="#m4f862fd74d" x="127" y="123.772812" style="stroke: #000000"/>
     </g>
    </g>
    <g id="text_28">
     <!-- max line -->
     <g transform="translate(145 127.272812) scale(0.1 -0.1)">
      <defs>
       <path id="DejaVuSans-78" d="M 3513 3500 
L 2247 1797 
L 3578 0 
L 2900 0 
L 1881 1375 
L 863 0 
L 184 0 
L 1544 1831 
L 300 3500 
L 978 3500 
L 1906 2253 
L 2834 3500 
L 3513 3500 
z
" transform="scale(0.015625)"/>
      </defs>
      <use xlink:href="#DejaVuSans-6d"/>
      <use xlink:href="#DejaVuSans-61" x="97.412109"/>
      <use xlink:href="#DejaVuSans-78" x="158.691406"/>
      <use xlink:href="#DejaVuSans-20" x="217.871094"/>
      <use xlink:href="#DejaVuSans-6c" x="249.658203"/>
      <use xlink:href="#DejaVuSans-69" x="277.441406"/>
      <use xlink:href="#DejaVuSans-6e" x="305.224609"/>
      <use xlink:href="#DejaVuSans-65" x="368.603516"/>
     </g>
    </g>
   </g>
  </g>
  <g id="axes_2">
   <g id="patch_13">
    <path d="M 108 376.92 
L 216 376.92 
L 216 370.44 
L 108 370.44 
z
" clip-path="url(#pb0700ccd43)" style="fill: #d3d3d3"/>
   </g>
   <g id="patch_14">
    <path d="M 108 376.92 
L 108 370.44 
L 162 370.44 
L 162 376.92 
z
" clip-path="url(#pb0700ccd43)" style="fill: #ff0000; stroke: #ff0000; stroke-linejoin: miter"/>
   </g>
   <g id="line2d_37">
    <path d="M 162 380.16 
L 162 367.2 
" clip-path="url(#p818de5d5f6)" style="fill: none; stroke: #ff0000; stroke-linecap: square"/>
   </g>
   <g id="line2d_38">
    <defs>
     <path id="m9e091bc9a2" d="M 0 5 
C 1.326016 5 2.597899 4.473168 3.535534 3.535534 
C 4.473168 2.597899 5 1.326016 5 0 
C 5 -1.326016 4.473168 -2.597899 3.535534 -3.535534 
C 2.597899 -4.473168 1.326016 -5 0 -5 
C -1.326016 -5 -2.597899 -4.473168 -3.535534 -3.535534 
C -4.473168 -2.597899 -5 -1.326016 -5 0 
C -5 1.326016 -4.473168 2.597899 -3.535534 3.535534 
C -2.597899 4.473168 -1.326016 5 0 5 
z
" style="stroke: #bfbfbf"/>
    </defs>
    <g>
     <use xlink:href="#m9e091bc9a2" x="162" y="373.68" style="fill: #ffffff; stroke: #bfbfbf"/>
    </g>
   </g>
   <g id="text_29">
    <!-- rigid -->
    <g transform="translate(83.475938 376.439375) scale(0.1 -0.1)">
     <use xlink:href="#DejaVuSans-72"/>
     <use xlink:href="#DejaVuSans-69" x="41.113281"/>
     <use xlink:href="#DejaVuSans-67" x="68.896484"/>
     <use xlink:href="#DejaVuSans-69" x="132.373047"/>
     <use xlink:href="#DejaVuSans-64" x="160.15625"/>
    </g>
   </g>
   <g id="text_30">
    <!-- $\mathdefault{30}$ -->
    <g transform="translate(218.16 376.439375) scale(0.1 -0.1)">
     <use xlink:href="#DejaVuSans-33" transform="translate(0 0.78125)"/>
     <use xlink:href="#DejaVuSans-30" transform="translate(63.623047 0.78125)"/>
    </g>
   </g>
  </g>
  <g id="axes_3">
   <g id="patch_15">
    <path d="M 280.8 376.92 
L 388.8 376.92 
L 388.8 370.44 
L 280.8 370.44 
z
" clip-path="url(#pb9250e9728)" style="fill: #d3d3d3"/>
   </g>
   <g id="patch_16">
    <path d="M 280.8 376.92 
L 280.8 370.44 
L 311.657143 370.44 
L 311.657143 376.92 
z
" clip-path="url(#pb9250e9728)" style="fill: #ff0000; stroke: #ff0000; stroke-linejoin: miter"/>
   </g>
   <g id="line2d_39">
    <path d="M 280.8 380.16 
L 280.8 367.2 
" clip-path="url(#p948bd605c9)" style="fill: none; stroke: #ff0000; stroke-linecap: square"/>
   </g>
   <g id="line2d_40">
    <g>
     <use xlink:href="#m9e091bc9a2" x="311.657143" y="373.68" style="fill: #ffffff; stroke: #bfbfbf"/>
    </g>
   </g>
   <g id="text_31">
    <!-- polygon -->
    <g transform="translate(238.67125 376.439375) scale(0.1 -0.1)">
     <use xlink:href="#DejaVuSans-70"/>
     <use xlink:href="#DejaVuSans-6f" x="63.476562"/>
     <use xlink:href="#DejaVuSans-6c" x="124.658203"/>
     <use xlink:href="#DejaVuSans-79" x="152.441406"/>
     <use xlink:href="#DejaVuSans-67" x="211.621094"/>
     <use xlink:href="#DejaVuSans-6f" x="275.097656"/>
     <use xlink:href="#DejaVuSans-6e" x="336.279297"/>
    </g>
   </g>
   <g id="text_32">
    <!-- $\mathdefault{5}$ -->
    <g transform="translate(390.96 376.439375) scale(0.1 -0.1)">
     <use xlink:href="#DejaVuSans-35" transform="translate(0 0.09375)"/>
    </g>
   </g>
  </g>
  <g id="axes_4">
   <g id="patch_17">
    <path d="M 108 394.2 
L 216 394.2 
L 216 387.72 
L 108 387.72 
z
" clip-path="url(#p4f37803cf5)" style="fill: #d3d3d3"/>
   </g>
   <g id="patch_18">
    <path d="M 108 394.2 
L 108 387.72 
L 172.8 387.72 
L 172.8 394.2 
z
" clip-path="url(#p4f37803cf5)" style="fill: #0000ff; stroke: #0000ff; stroke-linejoin: miter"/>
   </g>
   <g id="line2d_41">
    <path d="M 172.8 397.44 
L 172.8 384.48 
" clip-path="url(#p9cf1efafc3)" style="fill: none; stroke: #ff0000; stroke-linecap: square"/>
   </g>
   <g id="line2d_42">
    <g>
     <use xlink:href="#m9e091bc9a2" x="172.8" y="390.96" style="fill: #ffffff; stroke: #bfbfbf"/>
    </g>
   </g>
   <g id="text_33">
    <!-- A -->
    <g transform="translate(98.999375 393.719375) scale(0.1 -0.1)">
     <defs>
      <path id="DejaVuSans-41" d="M 2188 4044 
L 1331 1722 
L 3047 1722 
L 2188 4044 
z
M 1831 4666 
L 2547 4666 
L 4325 0 
L 3669 0 
L 3244 1197 
L 1141 1197 
L 716 0 
L 50 0 
L 1831 4666 
z
" transform="scale(0.015625)"/>
     </defs>
     <use xlink:href="#DejaVuSans-41"/>
    </g>
   </g>
   <g id="text_34">
    <!-- $\mathdefault{60}$ -->
    <g transform="translate(218.16 393.719375) scale(0.1 -0.1)">
     <use xlink:href="#DejaVuSans-36" transform="translate(0 0.78125)"/>
     <use xlink:href="#DejaVuSans-30" transform="translate(63.623047 0.78125)"/>
    </g>
   </g>
  </g>
  <g id="axes_5">
   <g id="patch_19">
    <path d="M 280.8 394.2 
L 388.8 394.2 
L 388.8 387.72 
L 280.8 387.72 
z
" clip-path="url(#p889968c454)" style="fill: #d3d3d3"/>
   </g>
   <g id="patch_20">
    <path d="M 280.8 394.2 
L 280.8 387.72 
L 324 387.72 
L 324 394.2 
z
" clip-path="url(#p889968c454)" style="fill: #808080; stroke: #808080; stroke-linejoin: miter"/>
   </g>
   <g id="line2d_43">
    <path d="M 324 397.44 
L 324 384.48 
" clip-path="url(#pe26af69709)" style="fill: none; stroke: #ff0000; stroke-linecap: square"/>
   </g>
   <g id="line2d_44">
    <g>
     <use xlink:href="#m9e091bc9a2" x="324" y="390.96" style="fill: #ffffff; stroke: #bfbfbf"/>
    </g>
   </g>
   <g id="text_35">
    <!-- B -->
    <g transform="translate(271.779063 393.719375) scale(0.1 -0.1)">
     <defs>
      <path id="DejaVuSans-42" d="M 1259 2228 
L 1259 519 
L 2272 519 
Q 2781 519 3026 730 
Q 3272 941 3272 1375 
Q 3272 1813 3026 2020 
Q 2781 2228 2272 2228 
L 1259 2228 
z
M 1259 4147 
L 1259 2741 
L 2194 2741 
Q 2656 2741 2882 2914 
Q 3109 3088 3109 3444 
Q 3109 3797 2882 3972 
Q 2656 4147 2194 4147 
L 1259 4147 
z
M 628 4666 
L 2241 4666 
Q 2963 4666 3353 4366 
Q 3744 4066 3744 3513 
Q 3744 3084 3544 2831 
Q 3344 2578 2956 2516 
Q 3422 2416 3680 2098 
Q 3938 1781 3938 1306 
Q 3938 681 3513 340 
Q 3088 0 2303 0 
L 628 0 
L 628 4666 
z
" transform="scale(0.015625)"/>
     </defs>
     <use xlink:href="#DejaVuSans-42"/>
    </g>
   </g>
   <g id="text_36">
    <!-- $\mathdefault{40}$ -->
    <g transform="translate(390.96 393.719375) scale(0.1 -0.1)">
     <use xlink:href="#DejaVuSans-34" transform="translate(0 0.78125)"/>
     <use xlink:href="#DejaVuSans-30" transform="translate(63.623047 0.78125)"/>
    </g>
   </g>
  </g>
  <g id="axes_6">
   <g id="patch_21">
    <path d="M 108 411.48 
L 216 411.48 
L 216 405 
L 108 405 
z
" clip-path="url(#p61220f3b09)" style="fill: #d3d3d3"/>
   </g>
   <g id="patch_22">
    <path d="M 108 411.48 
L 108 405 
L 162 405 
L 162 411.48 
z
" clip-path="url(#p61220f3b09)" style="fill: #0000ff; stroke: #0000ff; stroke-linejoin: miter"/>
   </g>
   <g id="line2d_45">
    <path d="M 162 414.72 
L 162 401.76 
" clip-path="url(#p214e8a35f0)" style="fill: none; stroke: #ff0000; stroke-linecap: square"/>
   </g>
   <g id="line2d_46">
    <g>
     <use xlink:href="#m9e091bc9a2" x="162" y="408.24" style="fill: #ffffff; stroke: #bfbfbf"/>
    </g>
   </g>
   <g id="text_37">
    <!-- C -->
    <g transform="translate(98.857188 410.999375) scale(0.1 -0.1)">
     <defs>
      <path id="DejaVuSans-43" d="M 4122 4306 
L 4122 3641 
Q 3803 3938 3442 4084 
Q 3081 4231 2675 4231 
Q 1875 4231 1450 3742 
Q 1025 3253 1025 2328 
Q 1025 1406 1450 917 
Q 1875 428 2675 428 
Q 3081 428 3442 575 
Q 3803 722 4122 1019 
L 4122 359 
Q 3791 134 3420 21 
Q 3050 -91 2638 -91 
Q 1578 -91 968 557 
Q 359 1206 359 2328 
Q 359 3453 968 4101 
Q 1578 4750 2638 4750 
Q 3056 4750 3426 4639 
Q 3797 4528 4122 4306 
z
" transform="scale(0.015625)"/>
     </defs>
     <use xlink:href="#DejaVuSans-43"/>
    </g>
   </g>
   <g id="text_38">
    <!-- $\mathdefault{0}$ -->
    <g transform="translate(218.16 410.999375) scale(0.1 -0.1)">
     <use xlink:href="#DejaVuSans-30" transform="translate(0 0.78125)"/>
    </g>
   </g>
  </g>
  <g id="axes_7">
   <g id="patch_23">
    <path d="M 345.6 421.2 
L 388.8 421.2 
L 388.8 403.92 
L 345.6 403.92 
z
" style="fill: #d3d3d3"/>
   </g>
   <g id="matplotlib.axis_3"/>
   <g id="matplotlib.axis_4"/>
   <g id="patch_24">
    <path d="M 345.6 421.2 
L 345.6 403.92 
" style="fill: none; stroke: #000000; stroke-width: 0.8; stroke-linejoin: miter; stroke-linecap: square"/>
   </g>
   <g id="patch_25">
    <path d="M 388.8 421.2 
L 388.8 403.92 
" style="fill: none; stroke: #000000; stroke-width: 0.8; stroke-linejoin: miter; stroke-linecap: square"/>
   </g>
   <g id="patch_26">
    <path d="M 345.6 421.2 
L 388.8 421.2 
" style="fill: none; stroke: #000000; stroke-width: 0.8; stroke-linejoin: miter; stroke-linecap: square"/>
   </g>
   <g id="patch_27">
    <path d="M 345.6 403.92 
L 388.8 403.92 
" style="fill: none; stroke: #000000; stroke-width: 0.8; stroke-linejoin: miter; stroke-linecap: square"/>
   </g>
   <g id="text_39">
    <!-- Reset -->
    <g transform="translate(353.232813 415.319375) scale(0.1 -0.1)">
     <use xlink:href="#DejaVuSans-52"/>
     <use xlink:href="#DejaVuSans-65" x="64.982422"/>
     <use xlink:href="#DejaVuSans-73" x="126.505859"/>
     <use xlink:href="#DejaVuSans-65" x="178.605469"/>
     <use xlink:href="#DejaVuSans-74" x="240.128906"/>
    </g>
   </g>
  </g>
  <g id="axes_8">
   <g id="patch_28">
    <path d="M 302.4 421.2 
L 345.6 421.2 
L 345.6 403.92 
L 302.4 403.92 
z
" style="fill: #f9f9f9"/>
   </g>
   <g id="matplotlib.axis_5"/>
   <g id="matplotlib.axis_6"/>
   <g id="patch_29">
    <path d="M 302.4 421.2 
L 302.4 403.92 
" style="fill: none; stroke: #000000; stroke-width: 0.8; stroke-linejoin: miter; stroke-linecap: square"/>
   </g>
   <g id="patch_30">
    <path d="M 345.6 421.2 
L 345.6 403.92 
" style="fill: none; stroke: #000000; stroke-width: 0.8; stroke-linejoin: miter; stroke-linecap: square"/>
   </g>
   <g id="patch_31">
    <path d="M 302.4 421.2 
L 345.6 421.2 
" style="fill: none; stroke: #000000; stroke-width: 0.8; stroke-linejoin: miter; stroke-linecap: square"/>
   </g>
   <g id="patch_32">
    <path d="M 302.4 403.92 
L 345.6 403.92 
" style="fill: none; stroke: #000000; stroke-width: 0.8; stroke-linejoin: miter; stroke-linecap: square"/>
   </g>
   <g id="text_40">
    <!-- Save -->
    <g transform="translate(311.725781 415.319375) scale(0.1 -0.1)">
     <defs>
      <path id="DejaVuSans-53" d="M 3425 4513 
L 3425 3897 
Q 3066 4069 2747 4153 
Q 2428 4238 2131 4238 
Q 1616 4238 1336 4038 
Q 1056 3838 1056 3469 
Q 1056 3159 1242 3001 
Q 1428 2844 1947 2747 
L 2328 2669 
Q 3034 2534 3370 2195 
Q 3706 1856 3706 1288 
Q 3706 609 3251 259 
Q 2797 -91 1919 -91 
Q 1588 -91 1214 -16 
Q 841 59 441 206 
L 441 856 
Q 825 641 1194 531 
Q 1563 422 1919 422 
Q 2459 422 2753 634 
Q 3047 847 3047 1241 
Q 3047 1584 2836 1778 
Q 2625 1972 2144 2069 
L 1759 2144 
Q 1053 2284 737 2584 
Q 422 2884 422 3419 
Q 422 4038 858 4394 
Q 1294 4750 2059 4750 
Q 2388 4750 2728 4690 
Q 3069 4631 3425 4513 
z
" transform="scale(0.015625)"/>
      <path id="DejaVuSans-76" d="M 191 3500 
L 800 3500 
L 1894 563 
L 2988 3500 
L 3597 3500 
L 2284 0 
L 1503 0 
L 191 3500 
z
" transform="scale(0.015625)"/>
     </defs>
     <use xlink:href="#DejaVuSans-53"/>
     <use xlink:href="#DejaVuSans-61" x="63.476562"/>
     <use xlink:href="#DejaVuSans-76" x="124.755859"/>
     <use xlink:href="#DejaVuSans-65" x="183.935547"/>
    </g>
   </g>
  </g>
 </g>
 <defs>
  <clipPath id="p7a5909f94d">
   <rect x="108" y="51.84" width="280.8" height="272.16"/>
  </clipPath>
  <clipPath id="pb0700ccd43">
   <rect x="108" y="367.2" width="108" height="12.96"/>
  </clipPath>
  <clipPath id="p818de5d5f6">
   <path d="M 108 376.92 
L 216 376.92 
L 216 370.44 
L 108 370.44 
z
"/>
  </clipPath>
  <clipPath id="pb9250e9728">
   <rect x="280.8" y="367.2" width="108" height="12.96"/>
  </clipPath>
  <clipPath id="p948bd605c9">
   <path d="M 280.8 376.92 
L 388.8 376.92 
L 388.8 370.44 
L 280.8 370.44 
z
"/>
  </clipPath>
  <clipPath id="p4f37803cf5">
   <rect x="108" y="384.48" width="108" height="12.96"/>
  </clipPath>
  <clipPath id="p9cf1efafc3">
   <path d="M 108 394.2 
L 216 394.2 
L 216 387.72 
L 108 387.72 
z
"/>
  </clipPath>
  <clipPath id="p889968c454">
   <rect x="280.8" y="384.48" width="108" height="12.96"/>
  </clipPath>
  <clipPath id="pe26af69709">
   <path d="M 280.8 394.2 
L 388.8 394.2 
L 388.8 387.72 
L 280.8 387.72 
z
"/>
  </clipPath>
  <clipPath id="p61220f3b09">
   <rect x="108" y="401.76" width="108" height="12.96"/>
  </clipPath>
  <clipPath id="p214e8a35f0">
   <path d="M 108 411.48 
L 216 411.48 
L 216 405 
L 108 405 
z
"/>
  </clipPath>
 </defs>
</svg>
